<?xml version="1.0" encoding="UTF-8" standalone="no"?>
<!-- Created with Inkscape (http://www.inkscape.org/) -->

<svg
   xmlns:dc="http://purl.org/dc/elements/1.1/"
   xmlns:cc="http://creativecommons.org/ns#"
   xmlns:rdf="http://www.w3.org/1999/02/22-rdf-syntax-ns#"
   xmlns:svg="http://www.w3.org/2000/svg"
   xmlns="http://www.w3.org/2000/svg"
   xmlns:sodipodi="http://sodipodi.sourceforge.net/DTD/sodipodi-0.dtd"
   xmlns:inkscape="http://www.inkscape.org/namespaces/inkscape"
   width="210mm"
   height="297mm"
   viewBox="0 0 744.09448819 1052.3622047"
   id="svg2"
   version="1.1"
   inkscape:version="0.91 r13725"
   sodipodi:docname="tchanBhabha.svg">
  <defs
     id="defs4">
    <marker
       inkscape:stockid="Arrow1Mstart"
       orient="auto"
       refY="0.0"
       refX="0.0"
       id="Arrow1Mstart"
       style="overflow:visible"
       inkscape:isstock="true">
      <path
         id="path4226"
         d="M 0.0,0.0 L 5.0,-5.0 L -12.5,0.0 L 5.0,5.0 L 0.0,0.0 z "
         style="fill-rule:evenodd;stroke:#000000;stroke-width:1pt;stroke-opacity:1;fill:#000000;fill-opacity:1"
         transform="scale(0.4) translate(10,0)" />
    </marker>
    <marker
       inkscape:isstock="true"
       style="overflow:visible;"
       id="marker4682"
       refX="0.0"
       refY="0.0"
       orient="auto"
       inkscape:stockid="Arrow2Mend">
      <path
         transform="scale(0.6) rotate(180) translate(0,0)"
         d="M 8.7185878,4.0337352 L -2.2072895,0.016013256 L 8.7185884,-4.0017078 C 6.9730900,-1.6296469 6.9831476,1.6157441 8.7185878,4.0337352 z "
         style="fill-rule:evenodd;stroke-width:0.625;stroke-linejoin:round;stroke:#000000;stroke-opacity:1;fill:#000000;fill-opacity:1"
         id="path4684" />
    </marker>
    <marker
       inkscape:isstock="true"
       style="overflow:visible;"
       id="marker4614"
       refX="0.0"
       refY="0.0"
       orient="auto"
       inkscape:stockid="Arrow1Mend">
      <path
         transform="scale(0.4) rotate(180) translate(10,0)"
         style="fill-rule:evenodd;stroke:#000000;stroke-width:1pt;stroke-opacity:1;fill:#000000;fill-opacity:1"
         d="M 0.0,0.0 L 5.0,-5.0 L -12.5,0.0 L 5.0,5.0 L 0.0,0.0 z "
         id="path4616" />
    </marker>
    <marker
       inkscape:isstock="true"
       style="overflow:visible;"
       id="marker4540"
       refX="0.0"
       refY="0.0"
       orient="auto"
       inkscape:stockid="Arrow1Lend">
      <path
         transform="scale(0.8) rotate(180) translate(12.5,0)"
         style="fill-rule:evenodd;stroke:#000000;stroke-width:1pt;stroke-opacity:1;fill:#000000;fill-opacity:1"
         d="M 0.0,0.0 L 5.0,-5.0 L -12.5,0.0 L 5.0,5.0 L 0.0,0.0 z "
         id="path4542" />
    </marker>
    <marker
       inkscape:stockid="Arrow1Mend"
       orient="auto"
       refY="0.0"
       refX="0.0"
       id="Arrow1Mend"
       style="overflow:visible;"
       inkscape:isstock="true">
      <path
         id="path4229"
         d="M 0.0,0.0 L 5.0,-5.0 L -12.5,0.0 L 5.0,5.0 L 0.0,0.0 z "
         style="fill-rule:evenodd;stroke:#000000;stroke-width:1pt;stroke-opacity:1;fill:#000000;fill-opacity:1"
         transform="scale(0.4) rotate(180) translate(10,0)" />
    </marker>
  </defs>
  <sodipodi:namedview
     id="base"
     pagecolor="#ffffff"
     bordercolor="#666666"
     borderopacity="1.0"
     inkscape:pageopacity="0.0"
     inkscape:pageshadow="2"
     inkscape:zoom="0.7"
     inkscape:cx="155.26711"
     inkscape:cy="413.54995"
     inkscape:document-units="px"
     inkscape:current-layer="layer1"
     showgrid="false"
     inkscape:window-width="1280"
     inkscape:window-height="739"
     inkscape:window-x="0"
     inkscape:window-y="0"
     inkscape:window-maximized="1"
     inkscape:object-nodes="true" />
  <metadata
     id="metadata7">
    <rdf:RDF>
      <cc:Work
         rdf:about="">
        <dc:format>image/svg+xml</dc:format>
        <dc:type
           rdf:resource="http://purl.org/dc/dcmitype/StillImage" />
        <dc:title></dc:title>
      </cc:Work>
    </rdf:RDF>
  </metadata>
  <g
     inkscape:label="Layer 1"
     inkscape:groupmode="layer"
     id="layer1">
    <path
       style="fill:none;stroke:#000000;stroke-width:2.99999976;stroke-linecap:butt;stroke-linejoin:miter;stroke-miterlimit:4;stroke-dasharray:8.99999998, 8.99999998;stroke-dashoffset:0;stroke-opacity:1"
       d="m 412.86074,696.9853 0,-140.35853"
       id="path3082"
       inkscape:connector-curvature="0" />
    <g
       id="g4937"
       transform="matrix(1,0,0,0.68231538,120,205.56785)">
      <path
         sodipodi:nodetypes="ccc"
         inkscape:connector-curvature="0"
         id="path3082-3"
         d="M 292.86074,514.51122 238.3125,432.36477 183.76426,350.21832"
         style="fill:none;stroke:#000000;stroke-width:3.6318562;stroke-linecap:butt;stroke-linejoin:miter;stroke-miterlimit:4;stroke-dasharray:none;stroke-dashoffset:0;stroke-opacity:1;marker-mid:url(#Arrow1Mstart)" />
      <path
         style="fill:none;stroke:#000000;stroke-width:3.6318562;stroke-linecap:butt;stroke-linejoin:miter;stroke-miterlimit:4;stroke-dasharray:none;stroke-dashoffset:0;stroke-opacity:1;marker-mid:url(#marker4682)"
         d="m 292.86074,514.51122 54.54824,-82.14645 54.54824,-82.14645"
         id="path4214"
         inkscape:connector-curvature="0"
         sodipodi:nodetypes="ccc" />
    </g>
    <flowRoot
       xml:space="preserve"
       id="flowRoot4708"
       style="font-style:normal;font-weight:normal;font-size:40px;line-height:125%;font-family:Sans;letter-spacing:0px;word-spacing:0px;fill:#000000;fill-opacity:1;stroke:none;stroke-width:1px;stroke-linecap:butt;stroke-linejoin:miter;stroke-opacity:1"
       transform="matrix(1,0,0,0.68231538,-86.40182,338.0539)"><flowRegion
         id="flowRegion4710"><rect
           id="rect4712"
           width="78.791901"
           height="49.497475"
           x="510.12704"
           y="394.7529" /></flowRegion><flowPara
         id="flowPara4714"
         style="font-size:10px">\Z</flowPara></flowRoot>    <flowRoot
       xml:space="preserve"
       id="flowRoot4716"
       style="fill:black;stroke:none;stroke-opacity:1;stroke-width:1px;stroke-linejoin:miter;stroke-linecap:butt;fill-opacity:1;font-family:Sans;font-style:normal;font-weight:normal;font-size:25px;line-height:125%;letter-spacing:0px;word-spacing:0px;"><flowRegion
         id="flowRegion4718"><rect
           id="rect4720"
           width="229.30463"
           height="71.720833"
           x="511.13718"
           y="401.82397"
           style="font-size:25px;" /></flowRegion><flowPara
         id="flowPara4722"></flowPara></flowRoot>    <flowRoot
       xml:space="preserve"
       id="flowRoot4724"
       style="font-style:normal;font-weight:normal;font-size:17.5px;line-height:125%;font-family:Sans;letter-spacing:0px;word-spacing:0px;fill:#000000;fill-opacity:1;stroke:none;stroke-width:1px;stroke-linecap:butt;stroke-linejoin:miter;stroke-opacity:1"
       transform="matrix(1,0,0,0.68231538,-111.49526,166.00041)"><flowRegion
         id="flowRegion4726"><rect
           id="rect4728"
           width="36.333637"
           height="17.088486"
           x="387.89859"
           y="324.04221"
           style="font-size:17.5px" /></flowRegion><flowPara
         id="flowPara4730"
         style="font-size:10px">\elp</flowPara></flowRoot>    <g
       id="g4941"
       transform="matrix(1,0,0,-0.68231538,120,1048.0442)">
      <path
         style="fill:none;stroke:#000000;stroke-width:3.6318562;stroke-linecap:butt;stroke-linejoin:miter;stroke-miterlimit:4;stroke-dasharray:none;stroke-dashoffset:0;stroke-opacity:1;marker-mid:url(#Arrow1Mstart)"
         d="M 292.86074,514.51122 238.3125,432.36477 183.76426,350.21832"
         id="path4943"
         inkscape:connector-curvature="0"
         sodipodi:nodetypes="ccc" />
      <path
         sodipodi:nodetypes="ccc"
         inkscape:connector-curvature="0"
         id="path4945"
         d="m 292.86074,514.51122 54.54824,-82.14645 54.54824,-82.14645"
         style="fill:none;stroke:#000000;stroke-width:3.6318562;stroke-linecap:butt;stroke-linejoin:miter;stroke-miterlimit:4;stroke-dasharray:none;stroke-dashoffset:0;stroke-opacity:1;marker-mid:url(#marker4682)" />
    </g>
    <flowRoot
       xml:space="preserve"
       id="flowRoot4724-5"
       style="font-style:normal;font-weight:normal;font-size:17.5px;line-height:125%;font-family:Sans;letter-spacing:0px;word-spacing:0px;fill:#000000;fill-opacity:1;stroke:none;stroke-width:1px;stroke-linecap:butt;stroke-linejoin:miter;stroke-opacity:1"
       transform="matrix(1,0,0,0.68231538,133.76311,165.85612)"><flowRegion
         id="flowRegion4726-8"><rect
           id="rect4728-7"
           width="36.333637"
           height="17.088486"
           x="387.89859"
           y="324.04221"
           style="font-size:17.5px" /></flowRegion><flowPara
         id="flowPara4730-3"
         style="font-size:10px">\elp</flowPara></flowRoot>    <flowRoot
       xml:space="preserve"
       id="flowRoot4724-6"
       style="font-style:normal;font-weight:normal;font-size:17.5px;line-height:125%;font-family:Sans;letter-spacing:0px;word-spacing:0px;fill:#000000;fill-opacity:1;stroke:none;stroke-width:1px;stroke-linecap:butt;stroke-linejoin:miter;stroke-opacity:1"
       transform="matrix(1,0,0,0.68231538,-111.23689,595.73272)"><flowRegion
         id="flowRegion4726-6"><rect
           id="rect4728-8"
           width="36.333637"
           height="17.088486"
           x="387.89859"
           y="324.04221"
           style="font-size:17.5px" /></flowRegion><flowPara
         id="flowPara4730-0"
         style="font-size:10px">\elm</flowPara></flowRoot>    <flowRoot
       xml:space="preserve"
       id="flowRoot4724-6-8"
       style="font-style:normal;font-weight:normal;font-size:17.5px;line-height:125%;font-family:Sans;letter-spacing:0px;word-spacing:0px;fill:#000000;fill-opacity:1;stroke:none;stroke-width:1px;stroke-linecap:butt;stroke-linejoin:miter;stroke-opacity:1"
       transform="matrix(1,0,0,0.68231538,120.07485,598.56268)"><flowRegion
         id="flowRegion4726-6-0"><rect
           id="rect4728-8-1"
           width="36.333637"
           height="17.088486"
           x="387.89859"
           y="324.04221"
           style="font-size:17.5px" /></flowRegion><flowPara
         id="flowPara4730-0-8"
         style="font-size:10px">\elm</flowPara></flowRoot>    <flowRoot
       transform="matrix(1,0,0,0.68231538,-406.40182,352.0539)"
       style="font-style:normal;font-weight:normal;font-size:40px;line-height:125%;font-family:Sans;letter-spacing:0px;word-spacing:0px;fill:#000000;fill-opacity:1;stroke:none;stroke-width:1px;stroke-linecap:butt;stroke-linejoin:miter;stroke-opacity:1"
       id="flowRoot5076"
       xml:space="preserve"><flowRegion
         id="flowRegion5078"><rect
           y="394.7529"
           x="510.12704"
           height="49.497475"
           width="78.791901"
           id="rect5080" /></flowRegion><flowPara
         style="font-size:10px"
         id="flowPara5082">$+$</flowPara></flowRoot>    <g
       id="g5086"
       transform="matrix(1,0,0,0.68231538,-460,205.56785)">
      <path
         style="fill:none;stroke:#000000;stroke-width:3.6318562;stroke-linecap:butt;stroke-linejoin:miter;stroke-miterlimit:4;stroke-dasharray:none;stroke-dashoffset:0;stroke-opacity:1;marker-mid:url(#Arrow1Mstart)"
         d="M 292.86074,514.51122 238.3125,432.36477 183.76426,350.21832"
         id="path5088"
         inkscape:connector-curvature="0"
         sodipodi:nodetypes="ccc" />
      <path
         sodipodi:nodetypes="ccc"
         inkscape:connector-curvature="0"
         id="path5090"
         d="m 292.86074,514.51122 54.54824,-82.14645 54.54824,-82.14645"
         style="fill:none;stroke:#000000;stroke-width:3.6318562;stroke-linecap:butt;stroke-linejoin:miter;stroke-miterlimit:4;stroke-dasharray:none;stroke-dashoffset:0;stroke-opacity:1;marker-mid:url(#marker4682)" />
    </g>
    <flowRoot
       transform="matrix(1,0,0,0.68231538,-666.40182,346.0539)"
       style="font-style:normal;font-weight:normal;font-size:40px;line-height:125%;font-family:Sans;letter-spacing:0px;word-spacing:0px;fill:#000000;fill-opacity:1;stroke:none;stroke-width:1px;stroke-linecap:butt;stroke-linejoin:miter;stroke-opacity:1"
       id="flowRoot5092"
       xml:space="preserve"><flowRegion
         id="flowRegion5094"><rect
           y="394.7529"
           x="510.12704"
           height="49.497475"
           width="78.791901"
           id="rect5096" /></flowRegion><flowPara
         style="font-size:10px"
         id="flowPara5098">\textgamma</flowPara></flowRoot>    <flowRoot
       transform="matrix(1,0,0,0.68231538,-691.49526,166.00041)"
       style="font-style:normal;font-weight:normal;font-size:17.5px;line-height:125%;font-family:Sans;letter-spacing:0px;word-spacing:0px;fill:#000000;fill-opacity:1;stroke:none;stroke-width:1px;stroke-linecap:butt;stroke-linejoin:miter;stroke-opacity:1"
       id="flowRoot5100"
       xml:space="preserve"><flowRegion
         id="flowRegion5102"><rect
           style="font-size:17.5px"
           y="324.04221"
           x="387.89859"
           height="17.088486"
           width="36.333637"
           id="rect5104" /></flowRegion><flowPara
         style="font-size:10px"
         id="flowPara5106">\elp</flowPara></flowRoot>    <g
       transform="matrix(1,0,0,-0.68231538,-460,1048.0442)"
       id="g5108">
      <path
         sodipodi:nodetypes="ccc"
         inkscape:connector-curvature="0"
         id="path5110"
         d="M 292.86074,514.51122 238.3125,432.36477 183.76426,350.21832"
         style="fill:none;stroke:#000000;stroke-width:3.6318562;stroke-linecap:butt;stroke-linejoin:miter;stroke-miterlimit:4;stroke-dasharray:none;stroke-dashoffset:0;stroke-opacity:1;marker-mid:url(#Arrow1Mstart)" />
      <path
         style="fill:none;stroke:#000000;stroke-width:3.6318562;stroke-linecap:butt;stroke-linejoin:miter;stroke-miterlimit:4;stroke-dasharray:none;stroke-dashoffset:0;stroke-opacity:1;marker-mid:url(#marker4682)"
         d="m 292.86074,514.51122 54.54824,-82.14645 54.54824,-82.14645"
         id="path5112"
         inkscape:connector-curvature="0"
         sodipodi:nodetypes="ccc" />
    </g>
    <flowRoot
       transform="matrix(1,0,0,0.68231538,-446.23689,165.85612)"
       style="font-style:normal;font-weight:normal;font-size:17.5px;line-height:125%;font-family:Sans;letter-spacing:0px;word-spacing:0px;fill:#000000;fill-opacity:1;stroke:none;stroke-width:1px;stroke-linecap:butt;stroke-linejoin:miter;stroke-opacity:1"
       id="flowRoot5114"
       xml:space="preserve"><flowRegion
         id="flowRegion5116"><rect
           style="font-size:17.5px"
           y="324.04221"
           x="387.89859"
           height="17.088486"
           width="36.333637"
           id="rect5118" /></flowRegion><flowPara
         style="font-size:10px"
         id="flowPara5120">\elp</flowPara></flowRoot>    <flowRoot
       transform="matrix(1,0,0,0.68231538,-691.23689,595.73272)"
       style="font-style:normal;font-weight:normal;font-size:17.5px;line-height:125%;font-family:Sans;letter-spacing:0px;word-spacing:0px;fill:#000000;fill-opacity:1;stroke:none;stroke-width:1px;stroke-linecap:butt;stroke-linejoin:miter;stroke-opacity:1"
       id="flowRoot5122"
       xml:space="preserve"><flowRegion
         id="flowRegion5124"><rect
           style="font-size:17.5px"
           y="324.04221"
           x="387.89859"
           height="17.088486"
           width="36.333637"
           id="rect5126" /></flowRegion><flowPara
         style="font-size:10px"
         id="flowPara5128">\elm</flowPara></flowRoot>    <flowRoot
       transform="matrix(1,0,0,0.68231538,-459.92515,598.56268)"
       style="font-style:normal;font-weight:normal;font-size:17.5px;line-height:125%;font-family:Sans;letter-spacing:0px;word-spacing:0px;fill:#000000;fill-opacity:1;stroke:none;stroke-width:1px;stroke-linecap:butt;stroke-linejoin:miter;stroke-opacity:1"
       id="flowRoot5130"
       xml:space="preserve"><flowRegion
         id="flowRegion5132"><rect
           style="font-size:17.5px"
           y="324.04221"
           x="387.89859"
           height="17.088486"
           width="36.333637"
           id="rect5134" /></flowRegion><flowPara
         style="font-size:10px"
         id="flowPara5136">\elm</flowPara></flowRoot>    <g
       transform="matrix(0,0.37949391,-0.54078703,0,-130.86523,427.24251)"
       id="g8348">
      <path
         sodipodi:nodetypes="csssssssssssssssssssssssssssssssssssssssssssssssssssssssssssssssssssssssssssssssssssssssssssssssssssssssssssssssssssssssssssssssssssssssssssssssssssssssssssssssssssssssssc"
         inkscape:connector-curvature="0"
         style="fill:none;stroke:#000000;stroke-width:4.4148345;stroke-linecap:square;stroke-miterlimit:4;stroke-dasharray:none;stroke-dashoffset:0;stroke-opacity:1;marker-mid:none;marker-end:none"
         d="m 337.4788,69.896418 c 0.732,-1.048967 1.46399,-2.086386 2.19598,-3.055425 0.732,-0.969039 1.46399,-1.868896 2.19599,-2.65062 0.73199,-0.781725 1.46399,-1.444302 2.19598,-1.952084 0.732,-0.507782 1.46399,-0.859653 2.19599,-1.037222 0.73199,-0.177569 1.46399,-0.179742 2.19598,-0.0074 0.73199,0.172322 1.46399,0.520089 2.19598,1.023206 0.732,0.503116 1.46399,1.162284 2.19599,1.940441 0.73199,0.778158 1.46399,1.67568 2.19598,2.642645 0.732,0.966966 1.46399,2.003381 2.19599,3.051999 0.73199,1.048617 1.46398,2.109074 2.19598,3.123139 0.73199,1.014065 1.46399,1.981046 2.19598,2.848183 0.732,0.867138 1.46399,1.633486 2.19599,2.257602 0.73199,0.624116 1.46399,1.104907 2.19598,1.416839 0.732,0.311932 1.46399,0.453886 2.19599,0.419067 0.73199,-0.03482 1.46398,-0.247433 2.19598,-0.625145 0.73199,-0.377712 1.46399,-0.921332 2.19598,-1.600079 0.732,-0.678748 1.46399,-1.493132 2.19599,-2.397699 0.73199,-0.904567 1.46399,-1.899469 2.19598,-2.929613 0.732,-1.030145 1.46399,-2.095312 2.19598,-3.136877 0.732,-1.041565 1.46399,-2.058959 2.19599,-2.996522 0.73199,-0.937563 1.46399,-1.794439 2.19598,-2.524101 0.732,-0.729663 1.46399,-1.331065 2.19599,-1.771969 0.73199,-0.440904 1.46399,-0.720187 2.19598,-0.823472 0.73199,-0.103285 1.46399,-0.0295 2.19598,0.21628 0.732,0.245779 1.46399,0.664456 2.19599,1.232063 0.73199,0.567607 1.46399,1.28478 2.19598,2.111314 0.732,0.826535 1.46399,1.762728 2.19599,2.756596 0.73199,0.993868 1.46398,2.045335 2.19598,3.0964 0.73199,1.051064 1.46399,2.101286 2.19598,3.093071 0.732,0.991785 1.46399,1.924379 2.19599,2.746978 0.73199,0.822599 1.46399,1.534218 2.19598,2.096474 0.732,0.562255 1.46399,0.97404 2.19598,1.213644 0.732,0.239605 1.46399,0.305922 2.19599,0.196324 0.73199,-0.109599 1.46399,-0.396097 2.19598,-0.842754 0.732,-0.446656 1.46399,-1.054222 2.19599,-1.788439 0.73199,-0.734218 1.46399,-1.595522 2.19598,-2.535937 0.732,-0.940414 1.46399,-1.96001 2.19598,-3.002408 0.732,-1.042398 1.46399,-2.107298 2.19599,-3.136164 0.73199,-1.028866 1.46399,-2.02106 2.19598,-2.922379 0.732,-0.901318 1.46399,-1.710855 2.19599,-2.384745 0.73199,-0.67389 1.46399,-1.211059 2.19598,-1.582842 0.73199,-0.371783 1.46399,-0.577058 2.19598,-0.605534 0.732,-0.02848 1.46399,0.120893 2.19599,0.438879 0.73199,0.317986 1.46399,0.805445 2.19598,1.434656 0.732,0.62921 1.46399,1.40074 2.19599,2.271448 0.73199,0.870708 1.46398,1.840811 2.19598,2.856527 0.73199,1.015716 1.46399,2.076889 2.19598,3.125054 0.732,1.048166 1.46399,2.082812 2.19599,3.047273 0.73199,0.96446 1.46399,1.857924 2.19598,2.631802 0.732,0.773877 1.46399,1.427148 2.19598,1.924683 0.732,0.497536 1.46399,0.83822 2.19599,1.004278 0.73199,0.166059 1.46399,0.156402 2.19598,-0.02742 0.732,-0.183821 1.46399,-0.542748 2.19599,-1.056077 0.73199,-0.513329 1.46399,-1.181751 2.19598,-1.967704 0.73199,-0.785952 1.46399,-1.689797 2.19598,-2.661276 0.732,-0.971479 1.46399,-2.010585 2.19599,-3.059935 0.73199,-1.049349 1.46399,-2.108566 2.19598,-3.1195 0.732,-1.010934 1.46399,-1.972883 2.19599,-2.833374 0.73199,-0.86049 1.46398,-1.618571 2.19598,-2.233261 0.73199,-0.61469 1.46399,-1.084894 2.19598,-1.385666 0.732,-0.300771 1.46399,-0.430993 2.19599,-0.384515 0.73199,0.04648 1.46399,0.27067 2.19598,0.659246 0.732,0.388576 1.46399,0.942337 2.19599,1.629951 0.73199,0.687614 1.46398,1.509579 2.19598,2.420031 0.73199,0.910453 1.46399,1.909533 2.19598,2.941931 0.732,1.032398 1.46399,2.097879 2.19599,3.137815 0.73199,1.039936 1.46399,2.053744 2.19598,2.985976 0.732,0.932231 1.46399,1.782021 2.19598,2.503241 0.732,0.721221 1.46399,1.31282 2.19599,1.743105 0.73199,0.430286 1.46399,0.698136 2.19598,0.789804 0.732,0.09167 1.46399,0.0061 2.19599,-0.251021 0.73199,-0.257107 1.46399,-0.686637 2.19598,-1.264029 0.73199,-0.577391 1.46399,-1.30327 2.19598,-2.136961 0.732,-0.833691 1.46399,-1.775478 2.19599,-2.773081 0.73199,-0.997604 1.46399,-2.050934 2.19598,-3.101899 0.732,-1.050964 1.46399,-2.099111 2.19599,-3.086972 0.73199,-0.987861 1.46398,-1.914673 2.19598,-2.729959 0.73199,-0.815286 1.46399,-1.518055 2.19598,-2.070418 0.732,-0.552364 1.46399,-0.953212 2.19599,-1.181443 0.73199,-0.22823 1.46399,-0.282736 2.19598,-0.161541 0.732,0.121195 1.46399,0.41907 2.19598,0.87626 0.732,0.45719 1.46399,1.074437 2.19599,1.816958 0.73199,0.74252 1.46399,1.610738 2.19598,2.556306 0.732,0.945567 1.46399,1.968543 2.19599,3.012372 0.73199,1.043829 1.46399,2.1082 2.19598,3.134617 0.732,1.026417 1.46399,2.014233 2.19598,2.909494 0.732,0.895261 1.46399,1.697054 2.19599,2.361949 0.73199,0.664896 1.46399,1.191815 2.19598,1.552662 0.732,0.360848 1.46399,0.554501 2.19599,0.571313 0.73199,0.01681 1.46399,-0.14426 2.19598,-0.473347 0.73199,-0.329087 1.46399,-0.827035 2.19598,-1.465553 0.732,-0.638517 1.46399,-1.41816 2.19599,-2.295349 0.73199,-0.877189 1.46399,-1.85213 2.19598,-2.870784 0.732,-1.018654 1.46399,-2.080852 2.19599,-3.128087 0.73199,-1.047234 1.46398,-2.078981 2.19598,-3.038745 0.73199,-0.959763 1.46399,-1.846724 2.19598,-2.612659 0.732,-0.765935 1.46399,-1.409818 2.19599,-1.897047 0.73199,-0.487228 1.46399,-0.816681 2.19598,-0.97121 0.732,-0.154528 1.46399,-0.133042 2.19598,0.06225 0.732,0.195296 1.46399,0.565339 2.19599,1.088818 0.73199,0.523478 1.46399,1.201073 2.19598,1.994723 0.732,0.793651 1.46399,1.703707 2.19599,2.67958 0.73199,0.975873 1.46399,2.017542 2.19598,3.067494 0.73199,1.049952 1.46399,2.107799 2.19598,3.115478 0.732,1.007678 1.46399,1.964476 2.19599,2.818214 0.73199,0.853738 1.46399,1.603457 2.19598,2.208646 0.732,0.605188 1.46399,1.064748 2.19599,1.354321 0.73199,0.289574 1.46399,0.408047 2.19598,0.349917 0.73199,-0.05813 1.46399,-0.293874 2.19598,-0.693266 0.732,-0.399393 1.46399,-0.963227 2.19599,-1.659623 0.73199,-0.696395 1.46399,-1.525839 2.19598,-2.442065 0.732,-0.916226 1.46399,-1.919362 2.19599,-2.953885 0.73199,-1.034524 1.46398,-2.100188 2.19598,-3.138367 0.73199,-1.038178 1.46399,-2.048277 2.19598,-2.975062 0.732,-0.926786 1.46399,-1.769384 2.19599,-2.482073 0.73199,-0.712689 1.46399,-1.294412 2.19598,-1.714027 0.732,-0.419615 1.46399,-0.675998 2.19598,-0.756038 0.732,-0.08004 1.46399,0.01733 2.19599,0.285732 0.73199,0.268404 1.46399,0.708733 2.19598,1.295838 0.732,0.587105 1.46399,1.3216 2.19599,2.162344 0.73199,0.840745 1.46399,1.788011 2.19598,2.789226 0.73199,1.001216 1.46399,2.05628 2.19598,3.107015 0.732,1.050735 1.46399,2.096678 2.19599,3.080494 0.73199,0.983815 1.46399,1.904729 2.19598,2.712602 0.732,0.807872 1.46399,1.501705 2.19599,2.044109 0.73199,0.542403 1.46398,0.932266 2.19598,1.149094 0.73199,0.216827 1.46399,0.259517 2.19598,0.12674 0.732,-0.132777 1.46399,-0.441992 2.19599,-0.909659 0.73199,-0.467667 1.46399,-1.09452 2.19598,-1.845252 0.732,-0.750732 1.46399,-1.625757 2.19599,-2.57636 0.73199,-0.950604 1.46398,-1.976833 2.19598,-3.021965 0.73199,-1.045132 1.46399,-2.108843 2.19598,-3.132685 0.732,-1.023842 1.46399,-2.007157 2.19599,-2.89625 0.73199,-0.889094 1.46399,-1.683045 2.19598,-2.338863 0.732,-0.655818 1.46399,-1.172422 2.19598,-1.52229 0.732,-0.349867 1.46399,-0.531876 2.19599,-0.537022 0.73199,-0.0051 1.46399,0.167611 2.19598,0.507758 0.732,0.340147 1.46399,0.848523 2.19599,1.496268 0.73199,0.647746 1.46399,1.435406 2.19598,2.318968 0.73199,0.883563 1.46399,1.863221 2.19598,2.884687 0.732,1.021466 1.46399,2.08456 2.19599,3.130734 0.73199,1.046174 1.46399,2.074894 2.19598,3.029843 0.732,0.954948 1.46399,1.835296 2.19599,2.593194 0.73199,0.757899 1.46398,1.392316 2.19598,1.869177 0.73199,0.47686 1.46399,0.795043 2.19598,0.938022 0.732,0.142978 1.46399,0.109667 2.19599,-0.09708 0.73199,-0.206748 1.46399,-0.587862 2.19598,-1.121425 0.732,-0.533563 1.46399,-1.220246 2.19598,-2.021497 0.732,-0.801251 1.46399,-1.717407 2.19599,-2.697553 0.73199,-0.980147 1.46399,-2.02425 2.19598,-3.074675 0.732,-1.050425 1.46399,-2.106772 2.19599,-3.111071 0.73199,-1.004299 1.46399,-1.955829 2.19598,-2.802708 0.732,-0.84688 1.46399,-1.588146 2.19598,-2.183758 0.732,-0.595612 1.46399,-1.044471 2.19599,-1.322811 0.73199,-0.278341 1.46399,-0.38505 2.19598,-0.315274 0.732,0.06978 1.46399,0.31704 2.19599,0.7272 0.73199,0.41016 1.46399,0.983998 2.19598,1.689089 0.73199,0.705092 1.46399,1.541911 2.19598,2.463798 0.732,0.921887 1.46399,1.928955 2.19599,2.965477 0.73199,1.036522 1.46399,2.102238 2.19598,3.138531 0.732,1.036292 1.46399,2.042558 2.19599,2.963783 0.73199,0.921224 1.46398,1.756528 2.19598,2.460598 0.73199,0.70407 1.46399,1.275845 2.19598,1.684737 0.732,0.408892 1.46399,0.653778 2.19599,0.72218 0.73199,0.0684 1.46399,-0.04074 2.19598,-0.320407 0.732,-0.279668 1.46399,-0.730743 2.19598,-1.327489 0.732,-0.596746 1.46399,-1.339767 2.19599,-2.187461 0.73199,-0.847695 1.46399,-1.800323 2.19598,-2.805027 0.732,-1.004704 1.46399,-2.061372 2.19599,-3.111748 0.73199,-1.050376 1.46399,-2.093987 2.19598,-3.073635"
         title="t cos(t)"
         id="path7931" />
    </g>
  </g>
</svg>
